<?xml version="1.0" standalone="no"?>
<!DOCTYPE svg PUBLIC "-//W3C//DTD SVG 20010904//EN"
 "http://www.w3.org/TR/2001/REC-SVG-20010904/DTD/svg10.dtd">
<svg version="1.0" xmlns="http://www.w3.org/2000/svg"
 width="1000.000000pt" height="1000.000000pt" viewBox="0 0 1000.000000 1000.000000"
 preserveAspectRatio="xMidYMid meet">
<metadata>
Created by potrace 1.14, written by Peter Selinger 2001-2017
</metadata>
<g transform="translate(0.000000,1000.000000) scale(0.100000,-0.100000)"
fill="#000000" stroke="none">
<path d="M3745 9993 c-706 -50 -1363 -272 -1945 -659 -914 -606 -1537 -1545
-1734 -2614 -62 -339 -61 -302 -61 -1720 0 -1418 -1 -1381 61 -1720 228 -1237
1026 -2295 2160 -2863 454 -227 958 -365 1488 -407 172 -13 2400 -13 2572 0
1206 95 2282 702 2976 1680 424 598 669 1280 728 2024 13 172 13 2400 0 2572
-77 976 -480 1853 -1165 2539 -580 579 -1311 964 -2110 1110 -334 60 -278 58
-1655 60 -696 1 -1287 0 -1315 -2z"/>
</g>
</svg>
